<?xml version="1.0" encoding="utf-8"?>
<!-- Generator: Adobe Illustrator 25.0.0, SVG Export Plug-In . SVG Version: 6.00 Build 0)  -->
<svg version="1.1" id="Layer_1" xmlns="http://www.w3.org/2000/svg" xmlns:xlink="http://www.w3.org/1999/xlink" x="0px" y="0px"
	 viewBox="140 0 306.6 224.41" style="enable-background:new 140 0 306.6 224.41;" xml:space="preserve">
<style type="text/css">
	.michigan{clip-path:url(#SVGID_2_);fill:#68A236;}
	.indiana{clip-path:url(#SVGID_2_);fill:#129CD5;}
	.ohio{clip-path:url(#SVGID_2_);fill:#00A88B;}
	.star{fill:#FFFFFF;}
</style>
<g>
	<defs>
		<rect id="SVGID_1_" x="3.58" y="3.18" width="299.52" height="216.53"/>
	</defs>
	<clipPath id="SVGID_2_">
		<use xlink:href="#SVGID_1_"  style="overflow:visible;"/>
	</clipPath>
	<path class="michigan" d="M249.39,33.55l0.15-2.22c0.04-0.67-0.45-1.25-1.12-1.32l-6.58-0.66c-0.27-0.03-0.52-0.14-0.72-0.33l-8.36-7.77
		c-0.35-0.33-0.86-0.42-1.31-0.24l-2.9,1.16c-0.61,0.24-1.3-0.02-1.58-0.61l-1.99-4.12c-0.24-0.49-0.76-0.77-1.3-0.69l-34.76,5
		c-0.33,0.05-0.67-0.04-0.94-0.25l-7.86-6.11c-0.3-0.23-0.68-0.32-1.05-0.23l-4.74,1.12c-0.97,0.23-1.8-0.71-1.45-1.64l1.83-4.93
		c0.07-0.2,0.2-0.37,0.36-0.51l4.91-4.21c0.28-0.24,0.43-0.58,0.43-0.94V3.17l-36.92,17.58c-0.68,0.32-0.92,1.16-0.51,1.79
		l3.19,4.98c0.16,0.25,0.41,0.43,0.69,0.52l30.53,9.11c0.52,0.16,0.88,0.64,0.89,1.18l0,0.64c0,0.47,0.27,0.91,0.7,1.11l2.78,1.34
		c0.48,0.23,0.76,0.74,0.7,1.26l-0.58,5.02c-0.07,0.6,0.31,1.17,0.89,1.34l1.07,0.31c0.59,0.17,0.97,0.75,0.89,1.36l-0.42,3.2
		c-0.03,0.24,0.01,0.48,0.11,0.7l0.63,1.32l8.44-13.51c0.12-0.19,0.29-0.35,0.49-0.45l4.85-2.46c0.83-0.42,1.81,0.19,1.81,1.12
		c-0.01,0.94,1,1.55,1.83,1.11l16.4-8.74c0.2-0.11,0.43-0.16,0.66-0.14l28.55,1.85C248.76,34.75,249.35,34.24,249.39,33.55
		 M271.7,96.71c0.06-0.25,0.03-0.51-0.06-0.75l-6.88-16.68c-0.21-0.51-0.73-0.82-1.28-0.76l-6.88,0.74
		c-0.28,0.03-0.54,0.15-0.74,0.35l-5.27,5.21c-0.61,0.6-1.63,0.42-2-0.35l-2.13-4.51c-0.22-0.46-0.13-1.01,0.22-1.38l6.09-6.5
		c0.21-0.23,0.33-0.53,0.34-0.84l0.1-21.25c0-0.47-0.26-0.9-0.68-1.11l-19.44-9.96c-0.32-0.17-0.71-0.18-1.04-0.04l-5.39,2.23
		c-0.53,0.22-0.84,0.76-0.76,1.32l0.57,3.99c0.06,0.4-0.08,0.8-0.38,1.08l-4.24,4c-0.16,0.15-0.28,0.35-0.34,0.56l-0.95,3.29
		c-0.35,1.2-2.05,1.2-2.39-0.01l-0.44-1.53c-0.22-0.76-1.08-1.13-1.78-0.76l-0.45,0.24c-0.23,0.12-0.42,0.32-0.53,0.55l-10.91,22.3
		c-0.1,0.21-0.14,0.43-0.12,0.66l3.65,39.07c0.02,0.26-0.03,0.52-0.17,0.75l-6.79,11.55c-0.49,0.84,0.13,1.89,1.1,1.87l2.51-0.05
		l17.45-1.07l-9.33-18.7l16.8,12.43l4.88-20.32l4.88,20.32l16.8-12.43l-9.33,18.7l1.85,0.11l8.01-0.17l2.18-6.56l0.62,0.12
		l6.74-14.82c0.19-0.42,0.6-0.7,1.05-0.73l2.13-0.13l0.37,0.28L271.7,96.71z"/>
	<path class="indiana" d="M203.61,131.39l-2.9,0.17l-2.13-0.42l-8.62-3.08c-0.9-0.2-1.77,0.43-1.85,1.34l-8.26,88.64
		c-0.09,0.93,0.67,1.71,1.6,1.66l25.23-1.46c0.49-0.03,0.93-0.29,1.19-0.69l3.4-5.26c0.22-0.34,0.56-0.57,0.95-0.66l5.14-1.13
		c0.34-0.07,0.64-0.26,0.86-0.53l6.28-7.8c0.17-0.22,0.29-0.48,0.32-0.76l0.38-2.87c0.1-0.76,0.75-1.33,1.52-1.32l5.19,0.03
		c0.84,0.01,1.52-0.67,1.53-1.51l0.3-44.96l-11.21,16.94l2.37-20.77l-20.04,5.94L220,138.52L203.61,131.39z"/>
	<path class="ohio" d="M303.1,174.01l-0.71-53.22l-32.88,14c-0.36,0.15-0.76,0.16-1.13,0.02l-6.3-2.38l-13.99,6.08l15.16,14.38
		l-20.04-5.94l2.37,20.76l-10.93-16.52l0.79,36.79c0.02,0.79,0.65,1.44,1.44,1.48l4.54,0.24c0.39,0.02,0.75,0.19,1.02,0.47
		l4.35,4.56c0.2,0.21,0.44,0.35,0.72,0.42l12.32,3.22c0.35,0.09,0.72,0.06,1.04-0.1l4.93-2.36c0.59-0.28,1.29-0.16,1.74,0.31
		l7.14,7.28c0.51,0.52,1.32,0.6,1.93,0.2l3.73-2.48c0.33-0.22,0.56-0.55,0.64-0.94l1.76-7.94c0.21-0.96,1.27-1.47,2.15-1.04
		l0.92,0.45c0.83,0.4,1.83-0.02,2.11-0.91l2.93-9.19c0.18-0.56,0.67-0.97,1.25-1.05l3.57-0.47c0.26-0.03,0.51-0.14,0.72-0.3
		l6.1-4.64C302.89,174.95,303.11,174.49,303.1,174.01"/>
</g>
<polygon class="star" points="234.05,113.36 230.82,126.82 219.69,118.59 225.87,130.97 212.05,131.82 224.74,137.34 214.7,146.86 
	227.97,142.93 226.41,156.68 234.05,145.14 241.68,156.68 240.12,142.93 253.39,146.86 243.35,137.34 256.04,131.82 242.22,130.97 
	248.4,118.59 237.28,126.82 "/>
</svg>
